<?xml version="1.0" encoding="UTF-8"?>
<svg id="Layer_1" data-name="Layer 1" xmlns="http://www.w3.org/2000/svg" viewBox="0 0 1200 1200">
  <defs>
    <style>
      .cls-1, .cls-2 {
        fill: #fff;
      }

      .cls-3 {
        fill: none;
      }

      .cls-3, .cls-4, .cls-2, .cls-5, .cls-6 {
        stroke: #231f20;
      }

      .cls-3, .cls-2 {
        stroke-linecap: round;
        stroke-linejoin: round;
      }

      .cls-3, .cls-2, .cls-6 {
        stroke-width: 3px;
      }

      .cls-4 {
        fill: #6d6e71;
        stroke-width: 4px;
      }

      .cls-4, .cls-5, .cls-6 {
        stroke-miterlimit: 10;
      }

      .cls-5 {
        stroke-width: 2.49px;
      }

      .cls-5, .cls-6 {
        fill: #58595b;
      }
    </style>
  </defs>
  <path class="cls-6" d="M831.4,271.2c-38.21,8.97-72.84,22.72-94.31,45.98-53.26,57.69-37.07,163.76-23.42,212.48,1.44,5.08,2.29,14.55,2.74,27.45-22.02-31.19-67.31-54.35-111.99-72.09,5.78-34.87,15.54-122.76,80.01-160.02,68.15-39.46,113.54-51.56,146.97-53.8Z"/>
  <path class="cls-4" d="M1087.35,164.07c0,20.73-20.76,59.48-61.05,87.08-22,15.07-48.8,5.23-81.85,9.46,39.82-17.2,57.62-25.31,71.54-36.44,11.74-9.39,16.5-14.86,21.55-22.04,10.1-14.39,25.16-37.47,15.26-67.86-1.67-5.14,6.71-6.71,10.59-7.31,8.67-1.33,16.02,7.03,17.3,8.54,0,0,6.65,7.89,6.65,28.57Z"/>
  <path class="cls-1" d="M318.86,552.63c-.25.3-.5.55-.8.85-.2-.25-.45-.5-.65-.7.5-.05.95-.15,1.44-.15Z"/>
  <path class="cls-6" d="M485.05,700.79c-27.75-9.37-71.41-42.59-121.5-33.59-43.38,7.8-62.73,32.09-74.49,47.33-5.13-12.3-9.57-24.51-12.41-36.12-14.2-58.49,19.13-100.88,41.4-124.95,54.4,56.69,117.28,106.56,151.95,134.11,5.23,4.19,10.26,8.57,15.05,13.2Z"/>
  <path class="cls-5" d="M719.46,1045.9c-6.78,14.89-13.85,31.78-19.43,48.18-15.59,45.78-63.37,38.01-74.08,31.19-10.71-6.82-2.89-36.07,5.88-57.54,8.77-21.42,0-35.07,0-35.07h60.43l23.37,15.59s1.35-.8,3.84-2.34Z"/>
  <path class="cls-6" d="M454.47,159.25c.38,0,.46.53.1.65-7.03,2.39-36.91,14.8-48.79,27.37-22.88,24.2-35.8,44.97-37.4,83.94-1.33,32.27-.51,73.23,34.83,120.56.23.31-.14.7-.46.48-39.39-27.75-73.93-60.74-77.03-90.45-5.83-56.35,6.28-77.97,37.46-111.8,27.96-30.32,80.66-30.94,91.27-30.75Z"/>
  <path class="cls-2" d="M1068.4,304.08c-58.48,51.89-144.34,32.83-216.38,142.24-68.6,104.17,2.04,268.58-7.72,401.15-8.72,118.32-104.47,185.43-124.85,198.43-2.49,1.54-3.84,2.34-3.84,2.34l-23.37-15.59h-60.43s-44.84-46.78-56.55-126.74c-10.76-73.58-34.77-152.15-90.22-205.11-4.78-4.63-9.81-9.02-15.05-13.2-34.67-27.55-97.55-77.42-151.95-134.11-22.27,24.06-55.6,66.46-41.4,124.95,2.84,11.61,7.27,23.82,12.41,36.12,23.07,55.75,58.84,112.25,9.32,113.84-60.43,1.94-126.83-10.86-170.27-67.25-20.53-26.65-25.32-97.31,23.8-168.5,33.83-48.97,85.84-72.29,127.04-83.35-31.39-38.96-55.05-79.11-60.43-116.08-15.59-107.21,21.42-198.83,116.98-233.9,16.64-6.13,31.19-10.11,43.79-12.5.5-.1,1-.2,1.49-.3,23.76-4.33,40.7-3.09,52.41,0,8.07,2.14,13.5,5.28,17.34,7.62,4.09,2.49,6.23,3.49,6.48,3.84,1.05,1.19-.9,1.39-.9,1.39,0,0-61.73-3.19-92.91,30.64-31.19,33.83-38.86,77.92-32.48,111.8,8.22,43.44,33.68,63.67,73.78,91.67,34.82,24.31,73.13,44.39,96.7,54.35,21.77,9.22,62.27,20.93,103.23,37.22,44.69,17.74,89.97,40.9,111.99,72.09-.45-12.9-1.3-22.37-2.74-27.45-13.65-48.73-29.84-154.79,23.42-212.48,21.47-23.27,56.1-37.02,94.31-45.98,43.64-10.26,91.92-14.35,130.58-19.43,30.79-3.98,41.75-2.39,66.81-17.54,39.06-23.66,50.17-59.13,47.08-78.41-3.24-20.48-18.33-27.75-18.33-27.75,4.88-1.94,11.56-2.94,14.1-2.69,8.47.75,18.13,8.12,35.12,38.66,19.48,35.07,24.01,84.7-38.35,140.04Z"/>
  <path class="cls-1" d="M318.86,552.63c-.25.3-.5.55-.8.85-.2-.25-.45-.5-.65-.7.5-.05.95-.15,1.44-.15Z"/>
  <path class="cls-2" d="M692.25,1032.64s52.33-58.66,71.49-124.32c15.93-54.59,25.23-87.73,10.29-168.3-14.73-79.39-57.62-182.9-57.62-182.9"/>
  <line class="cls-2" x1="278.95" y1="509.29" x2="317.41" y2="552.78"/>
  <path class="cls-3" d="M659.34,1032.64s50.69-156.82,0-279.63c-50.69-122.82-99.1-163.65-165.7-206.32-52.04-33.34-174.78-77.65-214.68-181.3-24.75-64.29,2.15-130.61,19.23-152.06,17.08-21.44,51.08-46,80.97-54.11,50.21-13.61,71.38-5.1,71.38-5.1"/>
  <path class="cls-3" d="M194.99,549.58s-25.06,67.68-6.37,134.67c13.5,48.4,37,68.93,71.89,96.79,34.89,27.86,56.05,39.42,56.05,39.42"/>
</svg>
